<svg xmlns="http://www.w3.org/2000/svg" width="45" height="45" viewBox="0 0 45 45"><g stroke="#000" style="stroke-width:1.5;stroke-linecap:round;stroke-linejoin:round"><path d="M9 26c8.5-1.5 21-1.5 27 0l2.5-12.5L31 25l-.3-14.1-5.2 13.6-3-14.5-3 14.5-5.2-13.6L14 25 6.5 13.5z"/><path d="M9 26c0 2 1.5 2 2.5 4 1 1.5 1 1 .5 3.5-1.5 1-1 2.5-1 2.5-1.5 1.5 0 2.5 0 2.5 6.5 1 16.5 1 23 0 0 0 1.5-1 0-2.5 0 0 .5-1.5-1-2.5-.5-2.5-.5-2 .5-3.5 1-2 2.5-2 2.5-4-8.5-1.5-18.5-1.5-27 0"/><path d="M11.5 30c3.5-1 18.5-1 22 0M12 33.5c6-1 15-1 21 0M8 12a2 2 0 0 1-2 2 2 2 0 0 1-2-2 2 2 0 0 1 4 0m8-3a2 2 0 0 1-2 2 2 2 0 0 1-2-2 2 2 0 0 1 4 0m8.5-1a2 2 0 0 1-2 2 2 2 0 0 1-2-2 2 2 0 0 1 4 0M33 9a2 2 0 0 1-2 2 2 2 0 0 1-2-2 2 2 0 0 1 4 0m8 3a2 2 0 0 1-2 2 2 2 0 0 1-2-2 2 2 0 0 1 4 0M11 38.5a35 35 1 0 0 23 0"/><path d="M11 29a35 35 1 0 1 23 0m-21.5 2.5h20m-21 3a35 35 1 0 0 22 0m-23 3a35 35 1 0 0 24 0" stroke="#fff"/></g></svg>
