<svg viewBox="0 0 1024 1024" width="1024" height="1024" xmlns="http://www.w3.org/2000/svg"><path d="M238.943 102.4A136.543 136.545 0 0 0 102.4 238.945v546.11A136.543 136.545 0 0 0 238.943 921.6h546.114A136.543 136.545 0 0 0 921.6 785.054V238.933A136.543 136.545 0 0 0 785.057 102.4Z" fill="#fff"/><path fill="#8e3b46" d="M238.943 102.4A136.543 136.545 0 0 0 102.4 238.944v546.109a136.543 136.545 0 0 0 136.543 136.545h546.113a136.543 136.545 0 0 0 136.542-136.545v-546.12A136.543 136.545 0 0 0 785.055 102.4Zm63.711 136.533h72.808v36.404h91.032v-36.404h91.01v36.404h91.02v-36.404h72.819v91.022l-54.607 54.617v227.544l27.298 45.51h9.106v72.81h54.604v54.617H266.24v-54.606h54.617v-72.82h9.095l27.321-45.511V384.572l-54.618-54.617Z"/></svg>
