<?xml version="1.0" encoding="UTF-8" standalone="no"?>
<svg
   viewBox="0 0 1024 1024"
   version="1.1"
   id="svg1"
   width="1024"
   height="1024"
   xmlns="http://www.w3.org/2000/svg"
   xmlns:svg="http://www.w3.org/2000/svg">
  <defs
     id="defs1" />
  <path
     d="M 301.34742,-146.43044 A 136.54341,136.54543 0 0 0 164.804,-9.8850186 V 536.22414 A 136.54341,136.54543 0 0 0 301.34742,672.76956 H 847.4606 A 136.54341,136.54543 0 0 0 984.004,536.22414 V -9.8971064 A 136.54341,136.54543 0 0 0 847.4606,-146.43044 Z"
     id="path4"
     style="fill:#ffffff;fill-opacity:1"
     transform="translate(-62.404,248.83044)" />
  <path
     fill="#8e3b46"
     d="M 212.01108,62 A 150.01107,150.01329 0 0 0 62,212.01328 V 811.98672 A 150.01107,150.01329 0 0 0 212.01108,962 H 811.98894 A 150.01107,150.01329 0 0 0 962,811.98672 V 212 A 150.01107,150.01329 0 0 0 811.98894,62 Z m 69.9963,150 h 79.9882 v 39.9947 h 100.0118 V 212 h 99.98524 v 39.9947 h 99.99852 V 212 h 80.00148 v 100 l -59.99114,60.00532 v 249.9867 l 29.98892,50 h 10.00518 v 79.9894 h 59.99114 v 60.0053 H 242 v -59.99204 h 60.00442 v -80.00266 h 9.99188 l 30.01552,-50 V 372.00532 L 282.00738,312 Z"
     id="path1"
     style="fill:#8e3b46;fill-opacity:1;stroke:none;stroke-width:13.2872;stroke-opacity:1"
     transform="matrix(0.91022222,0,0,0.91022222,45.966223,45.966223)" />
</svg>
